name Run_400 02_newCOP3_v24.mot
datacolumns 19
datarows 146
range 1.6375 1.71
DataType=double
version=3
OpenSimVersion=4.3-2021-08-27-4bc7ad9
endheader
time	R_ground_force_vx	R_ground_force_vy	R_ground_force_vz	R_ground_force_px	R_ground_force_py	R_ground_force_pz	L_ground_force_vx	L_ground_force_vy	L_ground_force_vz	L_ground_force_px	L_ground_force_py	L_ground_force_pz	R_ground_torque_x	R_ground_torque_y	R_ground_torque_z	L_ground_torque_x	L_ground_torque_y	L_ground_torque_z
1.6375	0	0	0	0	0	0	0	0	0	0	0	0	0	0	0	0	0	0
1.638	0	0	0	0	0	0	0	0	0	0	0	0	0	0	0	0	0	0
1.6385	0	0	0	0	0	0	0	0	0	0	0	0	0	0	0	0	0	0
1.639	0	0	0	0	0	0	0	0	0	0	0	0	0	0	0	0	0	0
1.6395	0	0	0	0	0	0	0	0	0	0	0	0	0	0	0	0	0	0
1.64	0	0	0	0	0	0	0	0	0	0	0	0	0	0	0	0	0	0
1.6405	0	0	0	0	0	0	0	0	0	0	0	0	0	0	0	0	0	0
1.641	0	0	0	0	0	0	0	0	0	0	0	0	0	0	0	0	0	0
1.6415	0	0	0	0	0	0	0	0	0	0	0	0	0	0	0	0	0	0
1.642	0	0	0	0	0	0	0	0	0	0	0	0	0	0	0	0	0	0
1.6425	0	0	0	0	0	0	0	0	0	0	0	0	0	0	0	0	0	0
1.643	0	0	0	0	0	0	0	0	0	0	0	0	0	0	0	0	0	0
1.6435	0	0	0	0	0	0	0	0	0	0	0	0	0	0	0	0	0	0
1.644	0	0	0	0	0	0	0	0	0	0	0	0	0	0	0	0	0	0
1.6445	0	0	0	0	0	0	0	0	0	0	0	0	0	0	0	0	0	0
1.645	0	0	0	0	0	0	0	0	0	0	0	0	0	0	0	0	0	0
1.6455	0	0	0	0	0	0	0	0	0	0	0	0	0	0	0	0	0	0
1.646	0	0	0	0	0	0	0	0	0	0	0	0	0	0	0	0	0	0
1.6465	0	0	0	0	0	0	0	0	0	0	0	0	0	0	0	0	0	0
1.647	0	0	0	0	0	0	0	0	0	0	0	0	0	0	0	0	0	0
1.6475	0	0	0	0	0	0	0	0	0	0	0	0	0	0	0	0	0	0
1.648	0	0	0	0	0	0	0	0	0	0	0	0	0	0	0	0	0	0
1.6485	0	0	0	0	0	0	0	0	0	0	0	0	0	0	0	0	0	0
1.649	0	0	0	0	0	0	0	0	0	0	0	0	0	0	0	0	0	0
1.6495	0	0	0	0	0	0	0	0	0	0	0	0	0	0	0	0	0	0
1.65	0	0	0	0	0	0	0	0	0	0	0	0	0	0	0	0	0	0
1.6505	0	0	0	0	0	0	0	0	0	0	0	0	0	0	0	0	0	0
1.651	0	0	0	0	0	0	0	0	0	0	0	0	0	0	0	0	0	0
1.6515	0	0	0	0	0	0	0	0	0	0	0	0	0	0	0	0	0	0
1.652	0	0	0	0	0	0	0	0	0	0	0	0	0	0	0	0	0	0
1.6525	0	0	0	0	0	0	0	0	0	0	0	0	0	0	0	0	0	0
1.653	0	0	0	0	0	0	0	0	0	0	0	0	0	0	0	0	0	0
1.6535	0	0	0	0	0	0	0	0	0	0	0	0	0	0	0	0	0	0
1.654	0	0	0	0	0	0	0	0	0	0	0	0	0	0	0	0	0	0
1.6545	0	0	0	0	0	0	0	0	0	0	0	0	0	0	0	0	0	0
1.655	0	0	0	0	0	0	0	0	0	0	0	0	0	0	0	0	0	0
1.6555	0	0	0	0	0	0	0	0	0	0	0	0	0	0	0	0	0	0
1.656	0	0	0	0	0	0	0	0	0	0	0	0	0	0	0	0	0	0
1.6565	0	0	0	0	0	0	0	0	0	0	0	0	0	0	0	0	0	0
1.657	0	0	0	0	0	0	0	0	0	0	0	0	0	0	0	0	0	0
1.6575	0	0	0	0	0	0	0	0	0	0	0	0	0	0	0	0	0	0
1.658	0	0	0	0	0	0	0	0	0	0	0	0	0	0	0	0	0	0
1.6585	0	0	0	0	0	0	0	0	0	0	0	0	0	0	0	0	0	0
1.659	0	0	0	0	0	0	0	0	0	0	0	0	0	0	0	0	0	0
1.6595	0	0	0	0	0	0	0	0	0	0	0	0	0	0	0	0	0	0
1.66	0	0	0	0	0	0	0	0	0	0	0	0	0	0	0	0	0	0
1.6605	0	0	0	0	0	0	0	0	0	0	0	0	0	0	0	0	0	0
1.661	0	0	0	0	0	0	0	0	0	0	0	0	0	0	0	0	0	0
1.6615	0	0	0	0	0	0	0	0	0	0	0	0	0	0	0	0	0	0
1.662	0	0	0	0	0	0	0	0	0	0	0	0	0	0	0	0	0	0
1.6625	0	0	0	0	0	0	0	0	0	0	0	0	0	0	0	0	0	0
1.663	0	0	0	0	0	0	0	0	0	0	0	0	0	0	0	0	0	0
1.6635	0	0	0	0	0	0	0	0	0	0	0	0	0	0	0	0	0	0
1.664	0	0	0	0	0	0	0	0	0	0	0	0	0	0	0	0	0	0
1.6645	0	0	0	0	0	0	0	0	0	0	0	0	0	0	0	0	0	0
1.665	0	0	0	0	0	0	0	0	0	0	0	0	0	0	0	0	0	0
1.6655	0	0	0	0	0	0	0	0	0	0	0	0	0	0	0	0	0	0
1.666	0	0	0	0	0	0	0	0	0	0	0	0	0	0	0	0	0	0
1.6665	0	0	0	0	0	0	0	0	0	0	0	0	0	0	0	0	0	0
1.667	0	0	0	0	0	0	0	0	0	0	0	0	0	0	0	0	0	0
1.6675	0	0	0	0	0	0	0	0	0	0	0	0	0	0	0	0	0	0
1.668	0	0	0	0	0	0	0	0	0	0	0	0	0	0	0	0	0	0
1.6685	0	0	0	0	0	0	0	0	0	0	0	0	0	0	0	0	0	0
1.669	0	0	0	0	0	0	0	0	0	0	0	0	0	0	0	0	0	0
1.6695	0	0	0	0	0	0	0	0	0	0	0	0	0	0	0	0	0	0
1.67	0	0	0	0	0	0	0	0	0	0	0	0	0	0	0	0	0	0
1.6705	0	0	0	0	0	0	0	0	0	0	0	0	0	0	0	0	0	0
1.671	0	0	0	0	0	0	0	0	0	0	0	0	0	0	0	0	0	0
1.6715	0	0	0	0	0	0	0	0	0	0	0	0	0	0	0	0	0	0
1.672	0	0	0	0	0	0	0	0	0	0	0	0	0	0	0	0	0	0
1.6725	0	0	0	0	0	0	0	0	0	0	0	0	0	0	0	0	0	0
1.673	0	0	0	0	0	0	0	0	0	0	0	0	0	0	0	0	0	0
1.6735	0	0	0	0	0	0	0	0	0	0	0	0	0	0	0	0	0	0
1.674	0	0	0	0	0	0	0	0	0	0	0	0	0	0	0	0	0	0
1.6745	0	0	0	0	0	0	0	0	0	0	0	0	0	0	0	0	0	0
1.675	0	0	0	0	0	0	0	0	0	0	0	0	0	0	0	0	0	0
1.6755	0	0	0	0	0	0	0	0	0	0	0	0	0	0	0	0	0	0
1.676	0	0	0	0	0	0	0	0	0	0	0	0	0	0	0	0	0	0
1.6765	0	0	0	0	0	0	0	0	0	0	0	0	0	0	0	0	0	0
1.677	0	0	0	0	0	0	0	0	0	0	0	0	0	0	0	0	0	0
1.6775	0	0	0	0	0	0	0	0	0	0	0	0	0	0	0	0	0	0
1.678	0	0	0	0	0	0	0	0	0	0	0	0	0	0	0	0	0	0
1.6785	0	0	0	0	0	0	0	0	0	0	0	0	0	0	0	0	0	0
1.679	0	0	0	0	0	0	0	0	0	0	0	0	0	0	0	0	0	0
1.6795	0	0	0	0	0	0	0	0	0	0	0	0	0	0	0	0	0	0
1.68	0	0	0	0	0	0	0	0	0	0	0	0	0	0	0	0	0	0
1.6805	0	0	0	0	0	0	0	0	0	0	0	0	0	0	0	0	0	0
1.681	0	0	0	0	0	0	0	0	0	0	0	0	0	0	0	0	0	0
1.6815	0	0	0	0	0	0	0	0	0	0	0	0	0	0	0	0	0	0
1.682	0	0	0	0	0	0	0	0	0	0	0	0	0	0	0	0	0	0
1.6825	0	0	0	0	0	0	0	0	0	0	0	0	0	0	0	0	0	0
1.683	0	0	0	0	0	0	0	0	0	0	0	0	0	0	0	0	0	0
1.6835	0	0	0	0	0	0	0	0	0	0	0	0	0	0	0	0	0	0
1.684	0	0	0	0	0	0	0	0	0	0	0	0	0	0	0	0	0	0
1.6845	0	0	0	0	0	0	0	0	0	0	0	0	0	0	0	0	0	0
1.685	0	0	0	0	0	0	0	0	0	0	0	0	0	0	0	0	0	0
1.6855	0	0	0	0	0	0	0	0	0	0	0	0	0	0	0	0	0	0
1.686	0	0	0	0	0	0	0	0	0	0	0	0	0	0	0	0	0	0
1.6865	0	0	0	0	0	0	0	0	0	0	0	0	0	0	0	0	0	0
1.687	0	0	0	0	0	0	0	0	0	0	0	0	0	0	0	0	0	0
1.6875	0	0	0	0	0	0	0	0	0	0	0	0	0	0	0	0	0	0
1.688	0	0	0	0	0	0	0	0	0	0	0	0	0	0	0	0	0	0
1.6885	0	0	0	0	0	0	0	0	0	0	0	0	0	0	0	0	0	0
1.689	0	0	0	0	0	0	0	0	0	0	0	0	0	0	0	0	0	0
1.6895	0	0	0	0	0	0	0	0	0	0	0	0	0	0	0	0	0	0
1.69	0	0	0	0	0	0	0	0	0	0	0	0	0	0	0	0	0	0
1.6905	0	0	0	0	0	0	0	0	0	0	0	0	0	0	0	0	0	0
1.691	0	0	0	0	0	0	0	0	0	0	0	0	0	0	0	0	0	0
1.6915	0	0	0	0	0	0	-3.275347	10.703628	0.065932	1.262443	0	-0.290861	0	0	0	0	-0.357076	0
1.692	0	0	0	0	0	0	-3.691391	11.609835	0.047542	1.266839	0	-0.294374	0	0	0	0	-0.421792	0
1.6925	0	0	0	0	0	0	-4.139181	12.584606	0.03083	1.271117	0	-0.297733	0	0	0	0	-0.488901	0
1.693	0	0	0	0	0	0	-4.620157	13.632478	0.015985	1.275285	0	-0.300942	0	0	0	0	-0.558392	0
1.6935	0	0	0	0	0	0	-5.135779	14.758245	0.003209	1.279345	0	-0.304007	0	0	0	0	-0.630254	0
1.694	0	0	0	0	0	0	-5.687525	15.966972	-0.007278	1.283303	0	-0.306932	0	0	0	0	-0.704471	0
1.6945	0	0	0	0	0	0	-6.276887	17.263996	-0.015244	1.28716	0	-0.309719	0	0	0	0	-0.781025	0
1.695	0	0	0	0	0	0	-6.90536	18.65494	-0.020436	1.29092	0	-0.312371	0	0	0	0	-0.8598980000000001	0
1.6955	0	0	0	0	0	0	-7.57444	20.145708	-0.02259	1.294584	0	-0.314891	0	0	0	0	-0.941064	0
1.696	0	0	0	0	0	0	-8.285621000000001	21.742508	-0.021422	1.298152	0	-0.317281	0	0	0	0	-1.0245	0
1.6965	0	0	0	0	0	0	-9.040379	23.451843	-0.016633	1.301627	0	-0.319543	0	0	0	0	-1.110176	0
1.697	0	0	0	0	0	0	-9.840171	25.280519	-0.007908	1.305009	0	-0.32168	0	0	0	0	-1.198061	0
1.6975	0	0	0	0	0	0	-10.686427	27.235649	0.005085	1.308297	0	-0.323695	0	0	0	0	-1.288122	0
1.698	0	0	0	0	0	0	-11.58054	29.324656	0.022691	1.311493	0	-0.325589	0	0	0	0	-1.380322	0
1.6985	0	0	0	0	0	0	-12.523852	31.555267	0.045274	1.314596	0	-0.327366	0	0	0	0	-1.474622	0
1.699	0	0	0	0	0	0	-13.517655	33.935528	0.073209	1.317608	0	-0.329028	0	0	0	0	-1.570979	0
1.6995	0	0	0	0	0	0	-14.563173	36.473778	0.106887	1.320526	0	-0.330578	0	0	0	0	-1.669349	0
1.7	0	0	0	0	0	0	-15.661552	39.178673	0.146713	1.323353	0	-0.33202	0	0	0	0	-1.769685	0
1.7005	0	0	0	0	0	0	-16.813854	42.059162	0.193101	1.326087	0	-0.333357	0	0	0	0	-1.871936	0
1.701	0	0	0	0	0	0	-18.021036	45.124481	0.246479	1.32873	0	-0.334593	0	0	0	0	-1.976049	0
1.7015	0	0	0	0	0	0	-19.283949	48.384167	0.307283	1.33128	0	-0.33573	0	0	0	0	-2.081969	0
1.702	0	0	0	0	0	0	-20.603323	51.848015	0.375959	1.33374	0	-0.336773	0	0	0	0	-2.189638	0
1.7025	0	0	0	0	0	0	-21.979746	55.526089	0.452958	1.336108	0	-0.337726	0	0	0	0	-2.298995	0
1.703	0	0	0	0	0	0	-23.413666	59.428707	0.538739	1.338385	0	-0.338592	0	0	0	0	-2.409976	0
1.7035	0	0	0	0	0	0	-24.905367	63.566422	0.633761	1.340573	0	-0.339375	0	0	0	0	-2.522516	0
1.704	0	0	0	0	0	0	-26.454962	67.949989	0.738489	1.34267	0	-0.34008	0	0	0	0	-2.636545	0
1.7045	0	0	0	0	0	0	-28.062378	72.590378	0.853384	1.34468	0	-0.34071	0	0	0	0	-2.751993	0
1.705	0	0	0	0	0	0	-29.727352	77.498718	0.978905	1.346601	0	-0.341269	0	0	0	0	-2.868787	0
1.7055	0	0	0	0	0	0	-31.449408	82.686302	1.115509	1.348435	0	-0.34176	0	0	0	0	-2.98685	0
1.706	0	0	0	0	0	0	-33.227856	88.164528	1.263642	1.350183	0	-0.342189	0	0	0	0	-3.106104	0
1.7065	0	0	0	0	0	0	-35.061775	93.944908	1.423743	1.351846	0	-0.342558	0	0	0	0	-3.226468	0
1.707	0	0	0	0	0	0	-36.950012	100.039001	1.596236	1.353425	0	-0.342871	0	0	0	0	-3.347861	0
1.7075	0	0	0	0	0	0	-38.891174	106.458397	1.781533	1.354922	0	-0.343132	0	0	0	0	-3.470196	0
1.708	0	0	0	0	0	0	-40.88361	113.214684	1.980026	1.356337	0	-0.343344	0	0	0	0	-3.593386	0
1.7085	0	0	0	0	0	0	-42.925426	120.319382	2.192088	1.357673	0	-0.343511	0	0	0	0	-3.717343	0
1.709	0	0	0	0	0	0	-45.014465	127.783943	2.418065	1.35893	0	-0.343635	0	0	0	0	-3.841975	0
1.7095	0	0	0	0	0	0	-47.148319	135.619675	2.65828	1.36011	0	-0.343719	0	0	0	0	-3.967189	0
1.71	0	0	0	0	0	0	-49.324322	143.837692	2.913025	1.361215	0	-0.343768	0	0	0	0	-4.09289	0
